<svg xmlns="http://www.w3.org/2000/svg" version="1.1" xmlns:xlink="http://www.w3.org/1999/xlink" xmlns:svgjs="http://svgjs.dev/svgjs" width="2000" height="1247" viewBox="0 0 2000 1247"><g transform="matrix(1,0,0,1,-1.2121212121212466,0.504858299595071)"><svg viewBox="0 0 396 247" data-background-color="#1f0f53" preserveAspectRatio="xMidYMid meet" height="1247" width="2000" xmlns="http://www.w3.org/2000/svg" xmlns:xlink="http://www.w3.org/1999/xlink"><g id="tight-bounds" transform="matrix(1,0,0,1,0.2400000000000091,-0.09999999999999432)"><svg viewBox="0 0 395.52 247.2" height="247.2" width="395.52"><g><svg></svg></g><g><svg viewBox="0 0 395.52 247.2" height="247.2" width="395.52"><mask id="e4460bb6-e6ad-4772-83ce-28717eb8e320"><rect width="395.52" height="247.2" fill="white"></rect><g transform="matrix(1,0,0,1,0,95.35703881312753)" id="clone"><svg viewBox="0 0 395.52 56.485922373744934" height="56.485922373744934" width="395.52"><g><svg viewBox="0 0 395.52 56.485922373744934" height="56.485922373744934" width="395.52"><g><svg viewBox="0 0 395.52 56.485922373744934" height="56.485922373744934" width="395.52"><g><svg viewBox="0 0 395.52 56.485922373744934" height="56.485922373744934" width="395.52"><g id="SvgjsG5413"><svg viewBox="0 0 395.52 56.485922373744934" height="56.485922373744934" width="395.52" id="SvgjsSvg5412"><g><svg viewBox="0 0 395.52 56.485922373744934" height="56.485922373744934" width="395.52"><g transform="matrix(1,0,0,1,0,0)"><svg width="395.52" viewBox="-1.05 -34.739999999999995 261.64 38.23" height="56.485922373744934" data-palette-color="#ffdb99"><path d="M1.95 0L13.92 0Q13.92-1.07 13.13-1.22L13.13-1.22Q12.89-1.27 12.65-1.27L12.65-1.27 10.06-1.27 10.06-12.65 12.6-15.04 24.17 0 30.96 0Q30.96-1.07 30.18-1.22L30.18-1.22Q29.93-1.27 29.69-1.27L29.69-1.27 28.37-1.27 15.63-17.87 24.32-25.98Q26.12-27.69 27.05-27.93L27.05-27.93Q27.49-28.03 27.98-28.03L27.98-28.03Q29.05-28.03 29.2-28.81L29.2-28.81Q29.25-29.05 29.25-29.3L29.25-29.3 20.46-29.3 20.46-28.03 24.37-28.03 10.06-14.84 10.06-28.03 13.92-28.03 13.92-29.3 1.95-29.3 1.95-28.03 5.86-28.03 5.86-1.27 1.95-1.27 1.95 0ZM43.11-20.02L43.11-20.02Q46.53-20.02 47.65-17.14L47.65-17.14Q48.04-16.21 48.04-15.14L48.04-15.14Q48.04-12.7 45.7-12.16L45.7-12.16Q44.48-11.91 42.23-11.96L42.23-11.96 37.06-12.11Q37.3-17.72 40.72-19.43L40.72-19.43Q41.84-20.02 43.11-20.02ZM51.61-4.69L51.61-4.69 50.39-5.13Q48.68-1.42 44.87-0.93L44.87-0.93Q44.38-0.88 43.94-0.88L43.94-0.88Q38.82-0.88 37.5-6.98L37.5-6.98Q37.11-8.69 37.06-10.74L37.06-10.74 42.92-10.64Q48.87-10.55 50.58-11.77L50.58-11.77Q51.9-12.74 51.9-14.55L51.9-14.55Q51.9-17.87 48.53-19.82L48.53-19.82Q46.14-21.24 43.02-21.24L43.02-21.24Q36.91-21.24 34.27-16.16L34.27-16.16Q32.91-13.53 32.91-10.21L32.91-10.21Q32.91-4.15 37.25-1.22L37.25-1.22Q39.84 0.49 43.16 0.49L43.16 0.49Q48.44 0.49 50.93-3.32L50.93-3.32Q51.32-4 51.61-4.69ZM65.18-1.22L65.18-1.22 62.54-1.22 62.54-31.74 55.22-31.74 55.22-30.52 58.88-30.52 58.88-4.15Q58.88-1.9 57.61-1.46L57.61-1.46Q56.88-1.22 55.22-1.22L55.22-1.22 55.22 0 66.4 0Q66.4-1.07 65.67-1.17L65.67-1.17Q65.47-1.22 65.18-1.22ZM73.92-19.53L77.34-19.53 77.34-20.75 67.86-20.75 67.86-19.53 70.06-19.53 76.02-3.17Q76.99-0.44 78.17 0L78.17 0Q78.75 0.24 79.63 0.24L79.63 0.24 80.27 0.24 87.15-17.82Q87.74-19.34 88.57-19.48L88.57-19.48Q88.81-19.53 89.01-19.53L89.01-19.53Q90.08-19.53 90.18-20.26L90.18-20.26Q90.23-20.51 90.23-20.75L90.23-20.75 82.71-20.75 82.71-19.53 86.37-19.53 80.17-2.88 73.92-19.53ZM101.85-1.22L101.85-1.22 99.4-1.22 99.4-20.75 91.84-20.75 91.84-19.53 95.74-19.53 95.74-4.15Q95.74-1.9 94.23-1.42L94.23-1.42Q93.5-1.22 91.84-1.22L91.84-1.22 91.84 0 103.07 0Q103.07-1.07 102.33-1.17L102.33-1.17Q102.09-1.22 101.85-1.22ZM99.99-27.88L99.99-27.88Q99.99-29.59 98.48-30.32L98.48-30.32Q97.89-30.57 97.35-30.57L97.35-30.57Q95.64-30.57 94.91-29L94.91-29Q94.67-28.47 94.67-27.88L94.67-27.88Q94.67-26.07 96.28-25.39L96.28-25.39Q96.82-25.2 97.35-25.2L97.35-25.2Q99.06-25.2 99.75-26.76L99.75-26.76Q99.99-27.29 99.99-27.88ZM115.51-1.22L115.51-1.22 113.32-1.22 113.32-11.77Q113.46-16.31 116.54-18.31L116.54-18.31Q117.86-19.14 119.23-19.14L119.23-19.14Q122.2-19.14 123.28-16.36L123.28-16.36Q123.72-15.23 123.72-13.82L123.72-13.82 123.72-4.15Q123.72-1.9 122.45-1.46L122.45-1.46Q121.72-1.22 120.06-1.22L120.06-1.22 120.06 0 131.04 0Q131.04-1.07 130.31-1.17L130.31-1.17Q130.11-1.22 129.82-1.22L129.82-1.22 127.38-1.22 127.38-13.33Q127.38-18.21 124.01-20.31L124.01-20.31Q122.45-21.24 120.64-21.24L120.64-21.24Q117.03-21.24 114.68-18.36L114.68-18.36Q113.81-17.24 113.27-15.87L113.27-15.87 113.07-20.75 105.99-20.75 105.99-19.53 109.66-19.53 109.66-4.15Q109.66-1.9 108.39-1.46L108.39-1.46Q107.65-1.22 105.99-1.22L105.99-1.22 105.99 0 116.74 0Q116.74-1.07 116-1.17L116-1.17Q115.81-1.22 115.51-1.22ZM143.73 0L157.7 0 157.7-1.27 151.84-1.27 151.84-14.4 161.9-14.4 161.9-15.82 151.84-15.82 151.84-28.03 159.65-28.03Q163.17-28.03 164.68-23.29L164.68-23.29Q164.78-23 164.83-22.8L164.83-22.8 165.51-20.51 166.49-20.51 166.24-29.3 143.73-29.3 143.73-28.03 147.64-28.03 147.64-1.27 143.73-1.27 143.73 0ZM192.12-1.22L192.12-1.22 189.68-1.22 189.68-20.75 182.01-20.75 182.01-19.53 186.02-19.53 186.02-8.98Q186.02-4.59 182.94-2.54L182.94-2.54Q181.57-1.61 180.11-1.61L180.11-1.61Q176.1-1.61 175.47-5.71L175.47-5.71Q175.37-6.4 175.37-7.18L175.37-7.18 175.37-20.75 167.95-20.75 167.95-19.53 171.71-19.53 171.71-7.91Q171.76 0.44 178.69 0.49L178.69 0.49Q182.35 0.49 184.7-2.49L184.7-2.49Q185.58-3.61 186.11-4.98L186.11-4.98 186.45 0 193.34 0Q193.34-1.07 192.61-1.17L192.61-1.17Q192.41-1.22 192.12-1.22ZM205.64-1.22L205.64-1.22 203.44-1.22 203.44-11.77Q203.59-16.06 206.42-18.16L206.42-18.16Q207.74-19.14 209.06-19.14L209.06-19.14Q211.5-19.14 212.43-16.46L212.43-16.46Q212.82-15.28 212.82-13.82L212.82-13.82 212.82-4.15Q212.82-1.9 211.75-1.46L211.75-1.46Q211.06-1.22 209.4-1.22L209.4-1.22 209.4 0 219.9 0Q219.9-1.07 219.17-1.17L219.17-1.17Q218.97-1.22 218.68-1.22L218.68-1.22 216.48-1.22 216.48-13.33 216.48-13.72Q217.26-17.29 219.95-18.7L219.95-18.7Q220.97-19.19 221.9-19.19L221.9-19.19Q224.39-19.19 225.42-16.6L225.42-16.6Q225.91-15.38 225.91-13.82L225.91-13.82 225.91-4.15Q225.91-1.9 224.83-1.46L224.83-1.46Q224.15-1.22 222.49-1.22L222.49-1.22 222.49 0 233.28 0Q233.28-1.07 232.55-1.17L232.55-1.17Q232.35-1.22 232.06-1.22L232.06-1.22 229.57-1.22 229.57-13.33Q229.57-18.36 226.3-20.36L226.3-20.36Q224.83-21.24 223.12-21.24L223.12-21.24Q219.41-21.24 217.17-17.77L217.17-17.77Q216.58-16.89 216.19-15.92L216.19-15.92Q215.31-19.78 212.33-20.9L212.33-20.9Q211.45-21.24 210.52-21.24L210.52-21.24Q207.01-21.24 204.71-18.26L204.71-18.26Q203.88-17.19 203.4-15.87L203.4-15.87 203.2-20.75 196.12-20.75 196.12-19.53 199.78-19.53 199.78-4.15Q199.78-1.9 198.51-1.46L198.51-1.46Q197.78-1.22 196.12-1.22L196.12-1.22 196.12 0 206.86 0Q206.86-1.03 206.13-1.17L206.13-1.17Q205.89-1.22 205.64-1.22ZM240.6-10.4L240.6-10.4Q240.6-17.97 244.75-19.63L244.75-19.63Q245.82-20.02 247-20.02L247-20.02Q252.42-20.02 253.3-13.18L253.3-13.18Q253.44-12.01 253.44-10.6L253.44-10.6Q253.44-2.39 248.95-0.98L248.95-0.98Q248.07-0.73 247.14-0.73L247.14-0.73Q242.21-0.73 240.94-6.59L240.94-6.59Q240.6-8.3 240.6-10.4ZM247.14-21.24L247.14-21.24Q242.46-21.24 239.33-18.02L239.33-18.02Q236.45-15.04 236.45-10.6L236.45-10.6Q236.45-4.44 240.94-1.37L240.94-1.37Q243.68 0.49 247 0.49L247 0.49Q251.68 0.49 254.76-2.83L254.76-2.83Q257.59-5.86 257.59-10.4L257.59-10.4Q257.59-16.55 253.05-19.53L253.05-19.53Q250.37-21.24 247.14-21.24Z" opacity="1" transform="matrix(1,0,0,1,0,0)" fill="black" class="wordmark-text-0" id="SvgjsPath5411" stroke-width="5" stroke="black" stroke-linejoin="round"></path></svg></g></svg></g></svg></g></svg></g><g></g></svg></g></svg></g></svg></g></mask><g mask="url(#e4460bb6-e6ad-4772-83ce-28717eb8e320)"><g><path d="M1.003 230.935h87.7c0-5.226-1.929-8.206-5.788-8.938v0c-1.172-0.244-2.345-0.366-3.517-0.367v0h-18.976v-83.377l18.61-17.51 84.769 110.192h49.748c0-5.226-1.905-8.206-5.715-8.938v0c-1.221-0.244-2.418-0.366-3.59-0.367v0h-9.671l-93.341-121.622 63.668-59.419c8.792-8.352 15.459-13.115 20.002-14.287v0c2.149-0.488 4.42-0.733 6.814-0.732v0c5.226 0 8.206-1.905 8.938-5.715v0c0.244-1.172 0.366-2.369 0.366-3.59v0h-64.401v9.305h28.647l-104.844 96.638v-96.638h28.281v-9.305h-87.7v9.305h28.648v196.06h-28.648zM227.836 230.935h102.353v-9.305h-42.934v-96.198h73.632v-10.404h-73.632v-89.458h57.221c17.144 0 29.429 11.576 36.853 34.728v0c0.488 1.416 0.83 2.613 1.025 3.59v0l5.056 16.778h7.107l-1.759-64.401h-164.922v9.305h28.647v196.06h-28.647z" fill="#000000" fill-rule="nonzero" stroke="none" stroke-width="1" stroke-linecap="butt" stroke-linejoin="miter" stroke-miterlimit="10" stroke-dasharray="" stroke-dashoffset="0" font-family="none" font-weight="none" font-size="none" text-anchor="none" style="mix-blend-mode: normal" data-fill-palette-color="tertiary"></path></g></g><g transform="matrix(1,0,0,1,0,95.35703881312753)"><svg viewBox="0 0 395.52 56.485922373744934" height="56.485922373744934" width="395.52"><g><svg viewBox="0 0 395.52 56.485922373744934" height="56.485922373744934" width="395.52"><g><svg viewBox="0 0 395.52 56.485922373744934" height="56.485922373744934" width="395.52"><g><svg viewBox="0 0 395.52 56.485922373744934" height="56.485922373744934" width="395.52"><g id="textblocktransform"><svg viewBox="0 0 395.52 56.485922373744934" height="56.485922373744934" width="395.52" id="textblock"><g><svg viewBox="0 0 395.52 56.485922373744934" height="56.485922373744934" width="395.52"><g transform="matrix(1,0,0,1,0,0)"><svg width="395.52" viewBox="-1.05 -34.739999999999995 261.64 38.23" height="56.485922373744934" data-palette-color="#ffdb99"><path d="M1.95 0L13.92 0Q13.92-1.07 13.13-1.22L13.13-1.22Q12.89-1.27 12.65-1.27L12.65-1.27 10.06-1.27 10.06-12.65 12.6-15.04 24.17 0 30.96 0Q30.96-1.07 30.18-1.22L30.18-1.22Q29.93-1.27 29.69-1.27L29.69-1.27 28.37-1.27 15.63-17.87 24.32-25.98Q26.12-27.69 27.05-27.93L27.05-27.93Q27.49-28.03 27.98-28.03L27.98-28.03Q29.05-28.03 29.2-28.81L29.2-28.81Q29.25-29.05 29.25-29.3L29.25-29.3 20.46-29.3 20.46-28.03 24.37-28.03 10.06-14.84 10.06-28.03 13.92-28.03 13.92-29.3 1.95-29.3 1.95-28.03 5.86-28.03 5.86-1.27 1.95-1.27 1.95 0ZM43.11-20.02L43.11-20.02Q46.53-20.02 47.65-17.14L47.65-17.14Q48.04-16.21 48.04-15.14L48.04-15.14Q48.04-12.7 45.7-12.16L45.7-12.16Q44.48-11.91 42.23-11.96L42.23-11.96 37.06-12.11Q37.3-17.72 40.72-19.43L40.72-19.43Q41.84-20.02 43.11-20.02ZM51.61-4.69L51.61-4.69 50.39-5.13Q48.68-1.42 44.87-0.93L44.87-0.93Q44.38-0.88 43.94-0.88L43.94-0.88Q38.82-0.88 37.5-6.98L37.5-6.98Q37.11-8.69 37.06-10.74L37.06-10.74 42.92-10.64Q48.87-10.55 50.58-11.77L50.58-11.77Q51.9-12.74 51.9-14.55L51.9-14.55Q51.9-17.87 48.53-19.82L48.53-19.82Q46.14-21.24 43.02-21.24L43.02-21.24Q36.91-21.24 34.27-16.16L34.27-16.16Q32.91-13.53 32.91-10.21L32.91-10.21Q32.91-4.15 37.25-1.22L37.25-1.22Q39.84 0.49 43.16 0.49L43.16 0.49Q48.44 0.49 50.93-3.32L50.93-3.32Q51.32-4 51.61-4.69ZM65.18-1.22L65.18-1.22 62.54-1.22 62.54-31.74 55.22-31.74 55.22-30.52 58.88-30.52 58.88-4.15Q58.88-1.9 57.61-1.46L57.61-1.46Q56.88-1.22 55.22-1.22L55.22-1.22 55.22 0 66.4 0Q66.4-1.07 65.67-1.17L65.67-1.17Q65.47-1.22 65.18-1.22ZM73.92-19.53L77.34-19.53 77.34-20.75 67.86-20.75 67.86-19.53 70.06-19.53 76.02-3.17Q76.99-0.44 78.17 0L78.17 0Q78.75 0.24 79.63 0.24L79.63 0.24 80.27 0.24 87.15-17.82Q87.74-19.34 88.57-19.48L88.57-19.48Q88.81-19.53 89.01-19.53L89.01-19.53Q90.08-19.53 90.18-20.26L90.18-20.26Q90.23-20.51 90.23-20.75L90.23-20.75 82.71-20.75 82.71-19.53 86.37-19.53 80.17-2.88 73.92-19.53ZM101.85-1.22L101.85-1.22 99.4-1.22 99.4-20.75 91.84-20.75 91.84-19.53 95.74-19.53 95.74-4.15Q95.74-1.9 94.23-1.42L94.23-1.42Q93.5-1.22 91.84-1.22L91.84-1.22 91.84 0 103.07 0Q103.07-1.07 102.33-1.17L102.33-1.17Q102.09-1.22 101.85-1.22ZM99.99-27.88L99.99-27.88Q99.99-29.59 98.48-30.32L98.48-30.32Q97.89-30.57 97.35-30.57L97.35-30.57Q95.64-30.57 94.91-29L94.91-29Q94.67-28.47 94.67-27.88L94.67-27.88Q94.67-26.07 96.28-25.39L96.28-25.39Q96.82-25.2 97.35-25.2L97.35-25.2Q99.06-25.2 99.75-26.76L99.75-26.76Q99.99-27.29 99.99-27.88ZM115.51-1.22L115.51-1.22 113.32-1.22 113.32-11.77Q113.46-16.31 116.54-18.31L116.54-18.31Q117.86-19.14 119.23-19.14L119.23-19.14Q122.2-19.14 123.28-16.36L123.28-16.36Q123.72-15.23 123.72-13.82L123.72-13.82 123.72-4.15Q123.72-1.9 122.45-1.46L122.45-1.46Q121.72-1.22 120.06-1.22L120.06-1.22 120.06 0 131.04 0Q131.04-1.07 130.31-1.17L130.31-1.17Q130.11-1.22 129.82-1.22L129.82-1.22 127.38-1.22 127.38-13.33Q127.38-18.21 124.01-20.31L124.01-20.31Q122.45-21.24 120.64-21.24L120.64-21.24Q117.03-21.24 114.68-18.36L114.68-18.36Q113.81-17.24 113.27-15.87L113.27-15.87 113.07-20.75 105.99-20.75 105.99-19.53 109.66-19.53 109.66-4.15Q109.66-1.9 108.39-1.46L108.39-1.46Q107.65-1.22 105.99-1.22L105.99-1.22 105.99 0 116.74 0Q116.74-1.07 116-1.17L116-1.17Q115.81-1.22 115.51-1.22ZM143.73 0L157.7 0 157.7-1.27 151.84-1.27 151.84-14.4 161.9-14.4 161.9-15.82 151.84-15.82 151.84-28.03 159.65-28.03Q163.17-28.03 164.68-23.29L164.68-23.29Q164.78-23 164.83-22.8L164.83-22.8 165.51-20.51 166.49-20.51 166.24-29.3 143.73-29.3 143.73-28.03 147.64-28.03 147.64-1.27 143.73-1.27 143.73 0ZM192.12-1.22L192.12-1.22 189.68-1.22 189.68-20.75 182.01-20.75 182.01-19.53 186.02-19.53 186.02-8.98Q186.02-4.59 182.94-2.54L182.94-2.54Q181.57-1.61 180.11-1.61L180.11-1.61Q176.1-1.61 175.47-5.71L175.47-5.71Q175.37-6.4 175.37-7.18L175.37-7.18 175.37-20.75 167.95-20.75 167.95-19.53 171.71-19.53 171.71-7.91Q171.76 0.44 178.69 0.49L178.69 0.49Q182.35 0.49 184.7-2.49L184.7-2.49Q185.58-3.61 186.11-4.98L186.11-4.98 186.45 0 193.34 0Q193.34-1.07 192.61-1.17L192.61-1.17Q192.41-1.22 192.12-1.22ZM205.64-1.22L205.64-1.22 203.44-1.22 203.44-11.77Q203.59-16.06 206.42-18.16L206.42-18.16Q207.74-19.14 209.06-19.14L209.06-19.14Q211.5-19.14 212.43-16.46L212.43-16.46Q212.82-15.28 212.82-13.82L212.82-13.82 212.82-4.15Q212.82-1.9 211.75-1.46L211.75-1.46Q211.06-1.22 209.4-1.22L209.4-1.22 209.4 0 219.9 0Q219.9-1.07 219.17-1.17L219.17-1.17Q218.97-1.22 218.68-1.22L218.68-1.22 216.48-1.22 216.48-13.33 216.48-13.72Q217.26-17.29 219.95-18.7L219.95-18.7Q220.97-19.19 221.9-19.19L221.9-19.19Q224.39-19.19 225.42-16.6L225.42-16.6Q225.91-15.38 225.91-13.82L225.91-13.82 225.91-4.15Q225.91-1.9 224.83-1.46L224.83-1.46Q224.15-1.22 222.49-1.22L222.49-1.22 222.49 0 233.28 0Q233.28-1.07 232.55-1.17L232.55-1.17Q232.35-1.22 232.06-1.22L232.06-1.22 229.57-1.22 229.57-13.33Q229.57-18.36 226.3-20.36L226.3-20.36Q224.83-21.24 223.12-21.24L223.12-21.24Q219.41-21.24 217.17-17.77L217.17-17.77Q216.58-16.89 216.19-15.92L216.19-15.92Q215.31-19.78 212.33-20.9L212.33-20.9Q211.45-21.24 210.52-21.24L210.52-21.24Q207.01-21.24 204.71-18.26L204.71-18.26Q203.88-17.19 203.4-15.87L203.4-15.87 203.2-20.75 196.12-20.75 196.12-19.53 199.78-19.53 199.78-4.15Q199.78-1.9 198.51-1.46L198.51-1.46Q197.78-1.22 196.12-1.22L196.12-1.22 196.12 0 206.86 0Q206.86-1.03 206.13-1.17L206.13-1.17Q205.89-1.22 205.64-1.22ZM240.6-10.4L240.6-10.4Q240.6-17.97 244.75-19.63L244.75-19.63Q245.82-20.02 247-20.02L247-20.02Q252.42-20.02 253.3-13.18L253.3-13.18Q253.44-12.01 253.44-10.6L253.44-10.6Q253.44-2.39 248.95-0.98L248.95-0.98Q248.07-0.73 247.14-0.73L247.14-0.73Q242.21-0.73 240.94-6.59L240.94-6.59Q240.6-8.3 240.6-10.4ZM247.14-21.24L247.14-21.24Q242.46-21.24 239.33-18.02L239.33-18.02Q236.45-15.04 236.45-10.6L236.45-10.6Q236.45-4.44 240.94-1.37L240.94-1.37Q243.68 0.49 247 0.49L247 0.49Q251.68 0.49 254.76-2.83L254.76-2.83Q257.59-5.86 257.59-10.4L257.59-10.4Q257.59-16.55 253.05-19.53L253.05-19.53Q250.37-21.24 247.14-21.24Z" opacity="1" transform="matrix(1,0,0,1,0,0)" fill="#000000" class="wordmark-text-0" data-fill-palette-color="primary" id="text-0"></path></svg></g></svg></g></svg></g></svg></g><g></g></svg></g></svg></g></svg></g></svg></g><defs></defs></svg><rect width="395.52" height="247.2" fill="none" stroke="none" visibility="hidden"></rect></g></svg></g></svg>