<?xml version="1.0" standalone="no"?>
<!DOCTYPE svg PUBLIC "-//W3C//DTD SVG 20010904//EN"
 "http://www.w3.org/TR/2001/REC-SVG-20010904/DTD/svg10.dtd">
<svg version="1.0" xmlns="http://www.w3.org/2000/svg"
 width="113.000000pt" height="24.000000pt" viewBox="0 0 113.000000 24.000000"
 preserveAspectRatio="xMidYMid meet">

<g transform="translate(0.000000,24.000000) scale(0.100000,-0.100000)"
fill="#000000" stroke="none">
<path d="M20 120 l0 -70 50 0 c38 0 50 4 50 15 0 10 -11 15 -35 15 -24 0 -35
5 -35 15 0 10 10 15 30 15 17 0 30 5 30 10 0 6 -13 10 -30 10 -20 0 -30 5 -30
15 0 10 11 15 35 15 24 0 35 5 35 15 0 11 -12 15 -50 15 l-50 0 0 -70z"/>
<path d="M156 133 c14 -32 28 -64 31 -70 12 -29 36 -9 64 52 34 75 34 75 14
75 -8 0 -24 -21 -36 -47 l-22 -48 -20 48 c-14 31 -27 47 -39 47 -16 0 -16 -5
8 -57z"/>
<path d="M312 174 c-31 -21 -31 -87 0 -108 33 -23 75 -20 103 9 30 30 31 54 4
89 -24 30 -72 35 -107 10z m91 -43 c8 -31 -14 -53 -48 -49 -26 3 -30 8 -33 36
-3 26 1 34 20 41 28 11 54 -1 61 -28z"/>
<path d="M475 165 c-30 -30 -31 -54 -4 -89 15 -20 29 -26 58 -26 20 0 42 5 49
12 17 17 15 58 -3 58 -8 0 -15 -9 -15 -19 0 -23 -18 -31 -47 -20 -17 6 -23 16
-23 39 0 34 32 54 62 39 10 -6 19 -5 23 1 23 37 -64 42 -100 5z"/>
<path d="M624 146 c14 -25 26 -56 26 -70 0 -16 6 -26 15 -26 9 0 15 9 15 23 0
12 11 40 25 62 28 46 30 55 13 55 -7 0 -21 -14 -31 -32 l-18 -32 -19 32 c-11
18 -27 32 -36 32 -13 0 -11 -8 10 -44z"/>
<path d="M750 120 c0 -56 3 -70 15 -70 11 0 15 11 15 43 l0 42 20 -32 c11 -18
24 -33 29 -33 5 0 18 15 30 33 l21 32 0 -42 c0 -32 4 -43 15 -43 12 0 15 14
15 70 0 83 -16 93 -52 30 -13 -22 -26 -40 -29 -40 -3 0 -15 18 -28 40 -35 63
-51 53 -51 -30z"/>
</g>
</svg>
